<svg width="108.000000" height="20.000000" viewBox="0 0 108 20" fill="none" xmlns="http://www.w3.org/2000/svg" xmlns:xlink="http://www.w3.org/1999/xlink">
	<desc>
			Created with Pixso.
	</desc>
	<defs/>
	<path id="Star 1" d="M9.42 1.75L7.88 6.49C7.8 6.74 7.57 6.9 7.31 6.9L2.33 6.9C1.75 6.9 1.51 7.65 1.98 7.99L6.01 10.92C6.22 11.07 6.31 11.34 6.23 11.59L4.69 16.33C4.51 16.88 5.14 17.34 5.61 17L9.64 14.07C9.85 13.92 10.14 13.92 10.35 14.07L14.38 17C14.85 17.34 15.48 16.88 15.3 16.33L13.76 11.59C13.68 11.34 13.77 11.07 13.98 10.92L18.01 7.99C18.48 7.65 18.24 6.9 17.66 6.9L12.68 6.9C12.42 6.9 12.19 6.74 12.11 6.49L10.57 1.75C10.39 1.2 9.6 1.2 9.42 1.75Z" fill="#FFEA28" fill-opacity="1.000000" fill-rule="evenodd"/>
	<path id="Star 2" d="M31.42 1.75L29.88 6.49C29.8 6.74 29.57 6.9 29.31 6.9L24.33 6.9C23.75 6.9 23.51 7.65 23.98 7.99L28.01 10.92C28.22 11.07 28.31 11.34 28.23 11.59L26.69 16.33C26.51 16.88 27.14 17.34 27.61 17L31.64 14.07C31.85 13.92 32.14 13.92 32.35 14.07L36.38 17C36.85 17.34 37.48 16.88 37.3 16.33L35.76 11.59C35.68 11.34 35.77 11.07 35.98 10.92L40.01 7.99C40.48 7.65 40.24 6.9 39.66 6.9L34.68 6.9C34.42 6.9 34.19 6.74 34.11 6.49L32.57 1.75C32.39 1.2 31.6 1.2 31.42 1.75Z" fill="#FFEA28" fill-opacity="1.000000" fill-rule="evenodd"/>
	<path id="Star 3" d="M53.42 1.75L51.88 6.49C51.8 6.74 51.57 6.9 51.31 6.9L46.33 6.9C45.75 6.9 45.51 7.65 45.98 7.99L50.01 10.92C50.22 11.07 50.31 11.34 50.23 11.59L48.69 16.33C48.51 16.88 49.14 17.34 49.61 17L53.64 14.07C53.85 13.92 54.14 13.92 54.35 14.07L58.38 17C58.85 17.34 59.48 16.88 59.3 16.33L57.76 11.59C57.68 11.34 57.77 11.07 57.98 10.92L62.01 7.99C62.48 7.65 62.24 6.9 61.66 6.9L56.68 6.9C56.42 6.9 56.19 6.74 56.11 6.49L54.57 1.75C54.39 1.2 53.6 1.2 53.42 1.75Z" fill="#FFEA28" fill-opacity="1.000000" fill-rule="evenodd"/>
	<path id="Star 4" d="M75.42 1.75L73.88 6.49C73.8 6.74 73.57 6.9 73.31 6.9L68.33 6.9C67.75 6.9 67.51 7.65 67.98 7.99L72.01 10.92C72.22 11.07 72.31 11.34 72.23 11.59L70.69 16.33C70.51 16.88 71.14 17.34 71.61 17L75.64 14.07C75.85 13.92 76.14 13.92 76.35 14.07L80.38 17C80.85 17.34 81.48 16.88 81.3 16.33L79.76 11.59C79.68 11.34 79.77 11.07 79.98 10.92L84.01 7.99C84.48 7.65 84.24 6.9 83.66 6.9L78.68 6.9C78.42 6.9 78.19 6.74 78.11 6.49L76.57 1.75C76.39 1.2 75.6 1.2 75.42 1.75Z" fill="#FFEA28" fill-opacity="1.000000" fill-rule="evenodd"/>
	<path id="Star 5" d="M97.42 1.75L95.88 6.49C95.8 6.74 95.57 6.9 95.31 6.9L90.33 6.9C89.75 6.9 89.51 7.65 89.98 7.99L94.01 10.92C94.22 11.07 94.31 11.34 94.23 11.59L92.69 16.33C92.51 16.88 93.14 17.34 93.61 17L97.64 14.07C97.85 13.92 98.14 13.92 98.35 14.07L102.38 17C102.85 17.34 103.48 16.88 103.3 16.33L101.76 11.59C101.68 11.34 101.77 11.07 101.98 10.92L106.01 7.99C106.48 7.65 106.24 6.9 105.66 6.9L100.68 6.9C100.42 6.9 100.19 6.74 100.11 6.49L98.57 1.75C98.39 1.2 97.6 1.2 97.42 1.75Z" fill="#C1C1C1" fill-opacity="1.000000" fill-rule="evenodd"/>
</svg>
